<?xml version="1.0" encoding="UTF-8" standalone="no"?>
<svg width="98px" height="68px" viewBox="0 0 98 68" version="1.1" xmlns="http://www.w3.org/2000/svg" xmlns:xlink="http://www.w3.org/1999/xlink" xmlns:sketch="http://www.bohemiancoding.com/sketch/ns">
    <!-- Generator: Sketch 3.3.3 (12081) - http://www.bohemiancoding.com/sketch -->
    <title>MVC</title>
    <desc>Created with Sketch.</desc>
    <defs></defs>
    <g id="Page-1" stroke="none" stroke-width="1" fill="none" fill-rule="evenodd" sketch:type="MSPage">
        <g id="noun_184775_cc" sketch:type="MSLayerGroup" transform="translate(1.000000, 1.000000)" stroke="#000000" stroke-width="0.216" fill="#000000">
            <path d="M60,0 C81,0 90,15 90,30 L90,36 C90,39.843 88.357,44.231 85.544,48 L94.5,48 C95.328,48 96,48.673 96,49.5 C96,50.327 95.328,51 94.5,51 L82.91,51 C79.263,54.534 74.439,57 69,57 L48,57 C48,50.373 42.627,45 36,45 C29.437,45 24.107,50.268 24.003,56.804 C12.227,55.948 0,52.782 0,42 C0,24 33,0 60,0 L60,0 L60,0 Z M36,66 C40.971,66 45,61.97 45,57 C45,52.03 40.971,48 36,48 C31.029,48 27,52.03 27,57 C27,61.97 31.029,66 36,66 L36,66 L36,66 Z M36,60 C37.656,60 39,58.657 39,57 C39,55.343 37.656,54 36,54 C34.344,54 33,55.343 33,57 C33,58.657 34.344,60 36,60 L36,60 L36,60 Z M57,51 L69,51 L69,21 C69,17.685 66.313,15 63,15 C59.686,15 57,17.685 57,21 L57,51 L57,51 Z M63,18 C61.344,18 60,19.343 60,21 C60,22.657 61.344,24 63,24 C64.656,24 66,22.657 66,21 C66,19.343 64.656,18 63,18 L63,18 L63,18 Z M72,21 C72,16.03 67.971,12 63,12 C58.028,12 54,16.03 54,21 L54,54 L69,54 C70.022,54 71.024,53.895 72,53.695 L72,21 L72,21 Z M48,19.5 C48,18.673 47.329,18 46.5,18 L25.5,18 C24.671,18 24,18.673 24,19.5 L24,31.5 C24,32.327 24.671,33 25.5,33 L46.5,33 C47.329,33 48,32.327 48,31.5 L48,19.5 L48,19.5 Z" id="Shape" sketch:type="MSShapeGroup"></path>
        </g>
    </g>
</svg>
